<svg width="19" height="18" viewBox="0 0 19 18" fill="none" xmlns="http://www.w3.org/2000/svg">
<g id="elements">
<g id="Icon">
<path d="M8.66659 9.20833C8.32141 9.20833 8.04159 9.48815 8.04159 9.83333C8.04159 10.1785 8.32141 10.4583 8.66659 10.4583H12.8333C13.1784 10.4583 13.4583 10.1785 13.4583 9.83333C13.4583 9.48815 13.1784 9.20833 12.8333 9.20833H8.66659Z" fill="white"/>
<path d="M6.16659 9.20833C5.82141 9.20833 5.54159 9.48815 5.54159 9.83333C5.54159 10.1785 5.82141 10.4583 6.16659 10.4583H6.17407C6.51925 10.4583 6.79907 10.1785 6.79907 9.83333C6.79907 9.48815 6.51925 9.20833 6.17407 9.20833H6.16659Z" fill="white"/>
<path d="M6.16659 12.5417C5.82141 12.5417 5.54159 12.8215 5.54159 13.1667C5.54159 13.5118 5.82141 13.7917 6.16659 13.7917H10.3333C10.6784 13.7917 10.9583 13.5118 10.9583 13.1667C10.9583 12.8215 10.6784 12.5417 10.3333 12.5417H6.16659Z" fill="white"/>
<path d="M12.8258 12.5417C12.4806 12.5417 12.2008 12.8215 12.2008 13.1667C12.2008 13.5118 12.4806 13.7917 12.8258 13.7917H12.8333C13.1784 13.7917 13.4583 13.5118 13.4583 13.1667C13.4583 12.8215 13.1784 12.5417 12.8333 12.5417H12.8258Z" fill="white"/>
<path fill-rule="evenodd" clip-rule="evenodd" d="M5.12492 0.666664C5.12492 0.321486 4.8451 0.0416641 4.49992 0.0416641C4.15474 0.0416641 3.87492 0.321486 3.87492 0.666664V1.19565C3.20429 1.38573 2.63867 1.69466 2.16787 2.20363C1.51961 2.90445 1.23146 3.78993 1.09346 4.89959C0.958236 5.98692 0.958243 7.38039 0.958252 9.15836V9.67497C0.958243 11.4529 0.958236 12.8464 1.09346 13.9337C1.23146 15.0434 1.51961 15.9289 2.16787 16.6297C2.82254 17.3374 3.66056 17.6584 4.70932 17.8108C5.72435 17.9584 7.02121 17.9583 8.65762 17.9583H10.3422C11.9786 17.9583 13.2755 17.9584 14.2905 17.8108C15.3393 17.6584 16.1773 17.3374 16.832 16.6297C17.4802 15.9289 17.7684 15.0434 17.9064 13.9337C18.0416 12.8464 18.0416 11.4529 18.0416 9.67494V9.15839C18.0416 7.3804 18.0416 5.98692 17.9064 4.89959C17.7684 3.78993 17.4802 2.90445 16.832 2.20363C16.3612 1.69466 15.7956 1.38573 15.1249 1.19565V0.666664C15.1249 0.321486 14.8451 0.0416641 14.4999 0.0416641C14.1547 0.0416641 13.8749 0.321486 13.8749 0.666664V0.971577C12.9282 0.874973 11.7632 0.874984 10.3422 0.874998H8.65762C7.23661 0.874984 6.07164 0.874973 5.12492 0.971577V0.666664ZM3.0855 3.05243C3.30161 2.8188 3.55933 2.63992 3.89875 2.50487C3.97331 2.76664 4.21423 2.95833 4.49992 2.95833C4.8451 2.95833 5.12492 2.67851 5.12492 2.33333V2.22882C6.00909 2.1263 7.1519 2.125 8.70825 2.125H10.2916C11.8479 2.125 12.9907 2.1263 13.8749 2.22882V2.33333C13.8749 2.67851 14.1547 2.95833 14.4999 2.95833C14.7856 2.95833 15.0265 2.76665 15.1011 2.50487C15.4405 2.63993 15.6982 2.8188 15.9143 3.05243C16.3079 3.47789 16.5411 4.06113 16.6644 5.04166H2.33543C2.45869 4.06113 2.69195 3.47789 3.0855 3.05243ZM2.24069 6.29166C2.20871 7.08907 2.20825 8.04233 2.20825 9.2027V9.63063C2.20825 11.4625 2.20939 12.7783 2.3339 13.7795C2.45676 14.7674 2.69032 15.3537 3.0855 15.7809C3.47426 16.2012 3.99765 16.4443 4.88912 16.5738C5.80388 16.7068 7.00982 16.7083 8.70825 16.7083H10.2916C11.99 16.7083 13.196 16.7068 14.1107 16.5738C15.0022 16.4443 15.5256 16.2012 15.9143 15.7809C16.3095 15.3537 16.5431 14.7674 16.6659 13.7795C16.7904 12.7783 16.7916 11.4625 16.7916 9.63063V9.2027C16.7916 8.04233 16.7911 7.08907 16.7591 6.29166H2.24069Z" fill="white"/>
</g>
</g>
</svg>
