<svg width="40" height="40" viewBox="0 0 40 40" fill="none" xmlns="http://www.w3.org/2000/svg">
<g id="champion">
<path id="Icon" fill-rule="evenodd" clip-rule="evenodd" d="M31.1006 3.66669C29.8015 2.08335 27.8696 2.08333 24.6886 2.08333H15.279C12.098 2.08333 10.166 2.08335 8.86697 3.66669C8.08792 4.62068 7.87038 5.68833 7.90369 7.08334L7.07915 7.08334C6.15038 7.08326 5.3263 7.08318 4.67391 7.17386C3.97464 7.27105 3.22679 7.50137 2.67683 8.16388C2.11913 8.83572 2.04319 9.6153 2.09847 10.3186C2.1491 10.9626 2.3297 11.7476 2.53002 12.6183L3.20082 15.5353C4.26438 20.1602 8.04795 23.6054 12.6597 24.4864C13.6941 26.1283 14.8555 27.4138 16.1068 28.2831C14.4694 29.3647 13.1745 31.0887 12.3701 33.0848C11.9344 34.1661 12.023 35.3092 12.4495 36.2042C12.8613 37.0681 13.7202 37.9167 14.9314 37.9167H25.0688C26.28 37.9167 27.1389 37.0681 27.5507 36.2042C27.9772 35.3092 28.0658 34.1661 27.6301 33.0848C26.8241 31.0848 25.5258 29.3579 23.8838 28.2768C25.1288 27.4085 26.284 26.127 27.3131 24.4916C31.9372 23.619 35.7337 20.1693 36.7993 15.5353L37.4701 12.6183C37.6704 11.7476 37.851 10.9626 37.9017 10.3186C37.9569 9.6153 37.881 8.83572 37.3233 8.16388C36.7733 7.50137 36.0255 7.27105 35.3262 7.17386C34.6738 7.08318 33.8498 7.08326 32.921 7.08334L32.0639 7.08334C32.0972 5.68833 31.8797 4.62068 31.1006 3.66669ZM31.8488 9.58334C31.8278 9.76226 31.8059 9.94553 31.7835 10.1334C31.2588 14.4958 30.2635 18.3216 28.9265 21.3997C31.6345 20.2295 33.6945 17.8814 34.3629 14.975L35.0141 12.1431C35.2403 11.1597 35.3751 10.5589 35.4094 10.1227C35.4253 9.92045 35.4125 9.81929 35.4029 9.77633C35.401 9.768 35.3994 9.76246 35.3983 9.75919C35.3973 9.7584 35.3876 9.75129 35.3633 9.74047C35.3091 9.71632 35.1974 9.67999 34.9821 9.65006C34.5227 9.58621 33.8757 9.58334 32.8373 9.58334H31.8488ZM11.0399 21.385C9.70322 18.3094 8.70791 14.4889 8.18412 10.1334C8.16168 9.94553 8.1398 9.76226 8.11879 9.58334H7.16288C6.12442 9.58334 5.4774 9.58621 5.01808 9.65006C4.80274 9.67999 4.69102 9.71632 4.63682 9.74047C4.61254 9.75129 4.60309 9.75825 4.60203 9.75904C4.60095 9.76231 4.5991 9.768 4.59723 9.77633C4.5876 9.81929 4.57489 9.92045 4.59078 10.1227C4.62507 10.5589 4.75987 11.1597 4.98601 12.1431L5.63723 14.975C6.30282 17.8693 8.3485 20.2099 11.0399 21.385ZM19.9919 27.0833C24.1889 27.0833 28.0861 19.8334 29.3019 9.83337C29.635 7.08337 29.7349 5.95004 29.1687 5.25004C28.6357 4.60004 27.4699 4.56665 24.6719 4.56665H15.2957C12.4977 4.56665 11.3319 4.60004 10.7989 5.25004C10.2327 5.95004 10.3326 7.08337 10.6657 9.83337C11.8815 19.8334 15.7949 27.0833 19.9919 27.0833ZM14.6889 34.0192C15.828 31.1926 17.898 29.5833 20.0001 29.5833C22.1022 29.5833 24.1721 31.1926 25.3113 34.0192C25.4742 34.4234 25.4326 34.8376 25.2939 35.1286C25.1805 35.3665 25.0737 35.4101 25.0538 35.4167H14.9464C14.9264 35.4101 14.8197 35.3665 14.7063 35.1286C14.5676 34.8376 14.526 34.4234 14.6889 34.0192Z" fill="white"/>
</g>
</svg>
