<svg width="49" height="54" viewBox="0 0 49 54" fill="none" xmlns="http://www.w3.org/2000/svg">
<path d="M11.1356 28.5845C10.2005 28.1397 9.08183 28.5372 8.63705 29.4723C8.19227 30.4075 8.58978 31.5261 9.52493 31.9709L14.5096 34.3418C15.4448 34.7866 16.5634 34.3891 17.0082 33.4539C17.453 32.5188 17.0555 31.4001 16.1203 30.9553L11.1356 28.5845Z" fill="white"/>
<path fill-rule="evenodd" clip-rule="evenodd" d="M41.7938 10.3068C40.8586 9.86206 39.74 10.2596 39.2952 11.1947C38.8504 12.1299 39.2479 13.2485 40.1831 13.6933C42.2437 14.6734 43.5971 15.3223 44.4602 15.8954C44.7926 16.116 44.9699 16.2723 45.0614 16.3688C44.9699 16.4654 44.7926 16.6216 44.4602 16.8423C43.5971 17.4153 42.2437 18.0643 40.1831 19.0444L32.8801 22.5179C28.2135 24.7374 26.4026 25.5518 24.5002 25.5518C22.5978 25.5518 20.7869 24.7374 16.1203 22.5179L8.81734 19.0443C6.75674 18.0643 5.40334 17.4153 4.54025 16.8423C4.20784 16.6216 4.03054 16.4654 3.93901 16.3688C4.03054 16.2723 4.20784 16.1161 4.54025 15.8954C5.40333 15.3223 6.75674 14.6734 8.81734 13.6933C9.75249 13.2485 10.15 12.1299 9.70523 11.1947C9.26044 10.2596 8.14179 9.86207 7.20664 10.3068L7.0715 10.3711C5.18293 11.2693 3.58041 12.0314 2.46605 12.7712C1.35815 13.5068 0.125202 14.6116 0.125201 16.3688L0.125202 39.7134C0.125204 42.5274 2.14823 44.4129 4.67246 45.9514C7.21896 47.5035 10.965 49.1107 15.6972 51.141L16.2302 51.3698C19.7732 52.8912 22.0645 53.8751 24.5002 53.8751C26.9359 53.8751 29.2271 52.8912 32.7702 51.3698L33.3031 51.141C38.0353 49.1107 41.7814 47.5035 44.3279 45.9514C46.8522 44.4129 48.8752 42.5274 48.8752 39.7134L48.8752 16.3688C48.8752 14.6116 47.6423 13.5068 46.5344 12.7712C45.42 12.0314 43.8175 11.2692 41.9289 10.3711L41.7938 10.3068ZM41.9291 22.3664C43.1267 21.7969 44.2092 21.2821 45.1252 20.793L45.1252 39.7134C45.1252 40.41 44.7162 41.3232 42.3763 42.7493C40.0866 44.1448 36.5909 45.6498 31.6686 47.7618C29.1237 48.8537 27.5685 49.5057 26.3752 49.84L26.3752 29.1251C28.5826 28.7165 30.8792 27.6233 34.0813 26.0992L41.9291 22.3664ZM22.6252 29.1251L22.6252 49.84C21.4319 49.5057 19.8767 48.8537 17.3318 47.7618C12.4095 45.6498 8.91378 44.1448 6.62411 42.7493C4.28423 41.3232 3.8752 40.41 3.8752 39.7134L3.8752 20.793C4.79124 21.2821 5.87385 21.797 7.07149 22.3665L14.9191 26.0992C18.1212 27.6233 20.4179 28.7165 22.6252 29.1251Z" fill="white"/>
<path d="M26.3753 1.99964C26.3753 0.96411 25.5358 0.124641 24.5003 0.124643C23.4648 0.124644 22.6253 0.964106 22.6253 1.99964L22.6253 6.99964C22.6253 8.03517 23.4648 8.87464 24.5003 8.87464C25.5358 8.87464 26.3753 8.03517 26.3753 6.99964L26.3753 1.99964Z" fill="white"/>
<path d="M16.0003 3.37464C15.379 2.54621 14.2037 2.37832 13.3753 2.99964C12.5469 3.62096 12.379 4.79621 13.0003 5.62464L16.7503 10.6246C17.3716 11.4531 18.5469 11.621 19.3753 10.9996C20.2037 10.3783 20.3716 9.20307 19.7503 8.37464L16.0003 3.37464Z" fill="white"/>
<path d="M36.0003 5.62464C36.6216 4.79621 36.4537 3.62096 35.6253 2.99964C34.7969 2.37832 33.6216 2.54622 33.0003 3.37464L29.2503 8.37464C28.629 9.20306 28.7969 10.3783 29.6253 10.9996C30.4537 11.621 31.629 11.4531 32.2503 10.6246L36.0003 5.62464Z" fill="white"/>
</svg>
