<svg width="15" height="15" viewBox="0 0 15 15" fill="none" xmlns="http://www.w3.org/2000/svg">
<g id="elements">
<g id="Icon">
<path d="M7.1819 7.34448C7.13849 7.34378 7.08829 7.34376 7.02637 7.34376C6.76748 7.34376 6.55762 7.1339 6.55762 6.87501C6.55762 6.61613 6.76748 6.40626 7.02637 6.40626L7.0479 6.40626C7.17609 6.40621 7.31471 6.40615 7.43172 6.42188C7.5688 6.44031 7.74392 6.48771 7.89129 6.63508C8.03867 6.78246 8.08607 6.95758 8.1045 7.09465C8.12023 7.21166 8.12017 7.35029 8.12012 7.47848L8.12012 10.625C8.12012 10.8839 7.91025 11.0938 7.65137 11.0938C7.39248 11.0938 7.18262 10.8839 7.18262 10.625L7.18262 7.50001C7.18262 7.43809 7.1826 7.38789 7.1819 7.34448Z" fill="#020617"/>
<path d="M7.49512 4.375C7.14994 4.375 6.87012 4.65482 6.87012 5C6.87012 5.34518 7.14994 5.625 7.49512 5.625H7.50073C7.84591 5.625 8.12573 5.34518 8.12573 5C8.12573 4.65482 7.84591 4.375 7.50073 4.375H7.49512Z" fill="#020617"/>
<path fill-rule="evenodd" clip-rule="evenodd" d="M0.78125 7.5C0.78125 11.2107 3.78934 14.2188 7.5 14.2187C11.2107 14.2187 14.2188 11.2107 14.2188 7.5C14.2188 3.78934 11.2107 0.78125 7.5 0.78125C3.78934 0.78125 0.78125 3.78934 0.78125 7.5ZM7.5 13.2812C4.3071 13.2812 1.71875 10.6929 1.71875 7.5C1.71875 4.3071 4.3071 1.71875 7.5 1.71875C10.6929 1.71875 13.2812 4.3071 13.2813 7.5C13.2813 10.6929 10.6929 13.2812 7.5 13.2812Z" fill="#020617"/>
</g>
</g>
</svg>
