<svg width="20" height="20" viewBox="0 0 20 20" fill="none" xmlns="http://www.w3.org/2000/svg">
<g id="elements">
<g id="Icon">
<path d="M9.99563 0C9.44335 0 8.99563 0.447715 8.99563 1C8.99563 1.55228 9.44335 2 9.99563 2H10.0046C10.5569 2 11.0046 1.55228 11.0046 1C11.0046 0.447715 10.5569 0 10.0046 0H9.99563Z" fill="white"/>
<path d="M16.3589 2.63599C15.8066 2.63599 15.3589 3.0837 15.3589 3.63599C15.3589 4.18827 15.8066 4.63599 16.3589 4.63599H16.3679C16.9202 4.63599 17.3679 4.18827 17.3679 3.63599C17.3679 3.0837 16.9202 2.63599 16.3679 2.63599H16.3589Z" fill="white"/>
<path d="M3.63421 2.63647C3.08193 2.63647 2.63421 3.08419 2.63421 3.63647C2.63421 4.18876 3.08193 4.63647 3.63421 4.63647H3.64319C4.19547 4.63647 4.64319 4.18876 4.64319 3.63647C4.64319 3.08419 4.19547 2.63647 3.64319 2.63647H3.63421Z" fill="white"/>
<path d="M1.00012 9.00058C0.447837 9.00058 0.00012207 9.4483 0.00012207 10.0006C0.00012207 10.5529 0.447837 11.0006 1.00012 11.0006H1.0091C1.56138 11.0006 2.0091 10.5529 2.0091 10.0006C2.0091 9.4483 1.56138 9.00058 1.0091 9.00058H1.00012Z" fill="white"/>
<path d="M18.9911 9.00058C18.4389 9.00058 17.9911 9.4483 17.9911 10.0006C17.9911 10.5529 18.4389 11.0006 18.9911 11.0006H19.0001C19.5524 11.0006 20.0001 10.5529 20.0001 10.0006C20.0001 9.4483 19.5524 9.00058 19.0001 9.00058H18.9911Z" fill="white"/>
<path d="M3.63421 15.364C3.08193 15.364 2.63421 15.8117 2.63421 16.364C2.63421 16.9163 3.08193 17.364 3.63421 17.364H3.64319C4.19547 17.364 4.64319 16.9163 4.64319 16.364C4.64319 15.8117 4.19547 15.364 3.64319 15.364H3.63421Z" fill="white"/>
<path d="M16.3583 15.3645C15.806 15.3645 15.3583 15.8122 15.3583 16.3645C15.3583 16.9168 15.806 17.3645 16.3583 17.3645H16.3673C16.9196 17.3645 17.3673 16.9168 17.3673 16.3645C17.3673 15.8122 16.9196 15.3645 16.3673 15.3645H16.3583Z" fill="white"/>
<path d="M9.99622 18C9.44393 18 8.99622 18.4477 8.99622 19C8.99622 19.5523 9.44393 20 9.99622 20H10.0052C10.5575 20 11.0052 19.5523 11.0052 19C11.0052 18.4477 10.5575 18 10.0052 18H9.99622Z" fill="white"/>
<path fill-rule="evenodd" clip-rule="evenodd" d="M10.0001 4.25C6.82448 4.25 4.25012 6.82436 4.25012 10C4.25012 13.1756 6.82448 15.75 10.0001 15.75C13.1758 15.75 15.7501 13.1756 15.7501 10C15.7501 6.82436 13.1758 4.25 10.0001 4.25ZM5.75012 10C5.75012 7.65279 7.65291 5.75 10.0001 5.75C12.3473 5.75 14.2501 7.65279 14.2501 10C14.2501 12.3472 12.3473 14.25 10.0001 14.25C7.65291 14.25 5.75012 12.3472 5.75012 10Z" fill="white"/>
</g>
</g>
</svg>
