<svg width="12" height="18" viewBox="0 0 12 18" fill="none" xmlns="http://www.w3.org/2000/svg">
<g id="elements">
<path id="Icon" fill-rule="evenodd" clip-rule="evenodd" d="M8.33958 5.23847C8.82831 4.687 9.12504 3.96149 9.12504 3.16667C9.12504 1.44078 7.72593 0.041666 6.00004 0.041666C4.27415 0.041666 2.87504 1.44078 2.87504 3.16667C2.87504 3.96148 3.17177 4.68699 3.66049 5.23846C1.11215 6.01214 -0.36257 8.93202 0.751611 11.5755C1.0049 12.1765 1.59029 12.5737 2.24614 12.5737H2.86234L3.74814 16.1766C4.00397 17.2171 4.92777 17.9583 6.00002 17.9583C7.07226 17.9583 7.99606 17.2171 8.25189 16.1766L9.13769 12.5737H9.7539C10.4097 12.5737 10.9951 12.1765 11.2484 11.5755C12.3626 8.93203 10.8879 6.01217 8.33958 5.23847ZM4.12504 3.16667C4.12504 2.13113 4.96451 1.29167 6.00004 1.29167C7.03558 1.29167 7.87504 2.13113 7.87504 3.16667C7.87504 4.2022 7.03558 5.04167 6.00004 5.04167C4.96451 5.04167 4.12504 4.2022 4.12504 3.16667ZM5.00191 6.29167C2.59506 6.29167 0.940345 8.8049 1.90348 11.0901C1.96516 11.2364 2.10241 11.3237 2.24614 11.3237H2.94912C3.48027 11.3237 3.93241 11.6905 4.057 12.1972L4.96199 15.8782C5.08357 16.3727 5.51618 16.7083 6.00002 16.7083C6.48386 16.7083 6.91646 16.3727 7.03804 15.8782L7.94303 12.1972C8.06763 11.6905 8.51976 11.3237 9.05091 11.3237H9.7539C9.89762 11.3237 10.0349 11.2364 10.0966 11.0901C11.0597 8.8049 9.40497 6.29167 6.99813 6.29167H5.00191Z" fill="white"/>
</g>
</svg>
