<svg width="14" height="18" viewBox="0 0 14 18" fill="none" xmlns="http://www.w3.org/2000/svg">
<g id="elements">
<g id="Icon">
<path fill-rule="evenodd" clip-rule="evenodd" d="M6.99999 9.20833C5.50666 9.20833 4.29166 7.99333 4.29166 6.5C4.29166 5.00666 5.50666 3.79166 6.99999 3.79166C8.49333 3.79166 9.70833 5.00666 9.70833 6.5C9.70833 7.99333 8.49333 9.20833 6.99999 9.20833ZM6.99999 5.04166C6.19583 5.04166 5.54166 5.69583 5.54166 6.5C5.54166 7.30416 6.19583 7.95833 6.99999 7.95833C7.80416 7.95833 8.45833 7.30416 8.45833 6.5C8.45833 5.69583 7.80416 5.04166 6.99999 5.04166Z" fill="white"/>
<path fill-rule="evenodd" clip-rule="evenodd" d="M6.99996 14.625C6.44496 14.625 5.91913 14.4133 5.51913 14.0292C5.31651 13.833 5.11075 13.6368 4.90263 13.4384L4.88245 13.4191C2.40579 11.0617 -0.6767 8.12748 1.03495 4.01334C2.02245 1.63751 4.41996 0.0416641 6.99996 0.0416641C9.57996 0.0416641 11.9783 1.63751 12.9658 4.01334C14.6832 8.14233 11.5752 11.0906 9.07862 13.4588C8.87612 13.6505 8.6758 13.8408 8.4808 14.0283C8.0808 14.4133 7.55496 14.625 6.99996 14.625ZM6.99996 1.29166C4.91829 1.29166 2.98496 2.57832 2.18913 4.49332C0.807508 7.81405 3.31731 10.2032 5.7439 12.5131C5.96224 12.7206 6.17745 12.9258 6.38745 13.1291C6.55162 13.2866 6.76996 13.375 6.99996 13.375C7.22996 13.375 7.4483 13.2875 7.61414 13.1283C7.7667 12.9816 7.92225 12.8338 8.07924 12.6846L8.2183 12.5525C10.6675 10.23 13.1991 7.82832 11.8125 4.49332C11.0158 2.57832 9.08163 1.29166 6.99996 1.29166Z" fill="white"/>
<path d="M1.37499 15.6667C1.37499 17.2408 4.29083 17.9583 6.99999 17.9583C9.70916 17.9583 12.625 17.2408 12.625 15.6667C12.625 15.3217 12.3425 15.0417 12 15.0417C11.6575 15.0417 11.3792 15.3175 11.375 15.6592C11.2767 15.9517 9.79999 16.7083 6.99999 16.7083C4.19999 16.7083 2.72333 15.9525 2.62499 15.6592C2.62083 15.3175 2.34499 15.0417 1.99999 15.0417C1.65499 15.0417 1.37499 15.3217 1.37499 15.6667Z" fill="white"/>
</g>
</g>
</svg>
