<svg width="48" height="48" viewBox="0 0 48 48" fill="none" xmlns="http://www.w3.org/2000/svg">
<g id="Frame">
<path id="Vector" d="M19.2332 6.2334L17.4202 9.0804L6.60319 9.0814C6.44639 9.08375 6.29547 9.14144 6.17708 9.24428C6.0587 9.34711 5.98046 9.48847 5.95619 9.6434L5.94919 9.7394V34.9004L11.9382 26.1934C12.1434 25.9012 12.412 25.659 12.7238 25.485C13.0356 25.311 13.3827 25.2096 13.7392 25.1884C14.0671 25.1641 14.3965 25.207 14.7072 25.3145C15.0179 25.4219 15.3034 25.5917 15.5462 25.8134L15.6722 25.9404L19.8542 30.4654L22.1212 27.1734L27.5822 35.0144L23.5172 42.3894H6.60419C4.74419 42.3894 3.22219 40.9194 3.12219 39.0724L3.11719 38.8804V9.7444C3.11719 7.8724 4.57819 6.3394 6.41319 6.2394L6.60319 6.2344H19.2332V6.2334ZM41.3962 6.2334C43.2562 6.2334 44.7782 7.7054 44.8782 9.5474L44.8832 9.7394V38.8794C44.8842 39.7744 44.5431 40.6359 43.9296 41.2875C43.316 41.9392 42.4766 42.3316 41.5832 42.3844L41.3922 42.3904H27.7892L31.4192 35.8034L31.4792 35.6844C31.6161 35.3882 31.673 35.0613 31.6444 34.7362C31.6158 34.4111 31.5027 34.0992 31.3162 33.8314L24.3882 23.8824L27.4352 19.4604C27.6558 19.1461 27.9494 18.89 28.2908 18.714C28.6322 18.5381 29.0112 18.4477 29.3952 18.4504C29.7503 18.4488 30.1013 18.526 30.4229 18.6764C30.7446 18.8269 31.0288 19.0468 31.2552 19.3204L31.3612 19.4604L42.0502 34.8904V9.7404C42.0486 9.56705 41.9794 9.40119 41.8572 9.27824C41.735 9.15529 41.5695 9.085 41.3962 9.0824H21.8552L23.6672 6.2344H41.3972L41.3962 6.2334ZM13.0912 11.8444C13.8852 11.8444 14.6112 12.1424 15.1612 12.6324L14.3182 13.9574L14.2512 14.0714C14.0863 14.3761 14.0092 14.7206 14.0286 15.0665C14.048 15.4124 14.1632 15.7461 14.3612 16.0304L15.2092 17.2474C14.6532 17.7624 13.9092 18.0774 13.0912 18.0774C12.2651 18.0761 11.4732 17.7474 10.8889 17.1633C10.3047 16.5793 9.97577 15.7875 9.97419 14.9614C9.97472 14.1349 10.3033 13.3424 10.8877 12.7579C11.4722 12.1735 12.2647 11.8449 13.0912 11.8444Z" fill="#DBDBDB"/>
</g>
</svg>
