<svg width="36" height="37" viewBox="0 0 36 37" fill="none" xmlns="http://www.w3.org/2000/svg">
<rect y="0.473145" width="36" height="36" rx="18" fill="#4A4A59"/>
<path d="M26.5002 11.9029V11.2229C26.5002 10.8084 26.1647 10.4729 25.7502 10.4729C21.7832 10.4729 18.4036 8.5894 18.3696 8.5704C18.1401 8.44089 17.8591 8.44039 17.6296 8.5709C17.5961 8.5894 14.2331 10.4729 10.25 10.4729C9.8355 10.4729 9.5 10.8084 9.5 11.2229V18.9475C9.5 20.2085 9.81 21.3536 10.309 22.3801L26.5002 11.9029ZM14.5001 12.973L15.5001 14.223L14.5001 15.473L13.5 14.223L14.5001 12.973ZM11.0735 23.6716C13.2625 26.7821 17.0651 28.4731 18.0001 28.4731C19.3331 28.4731 26.5002 25.0401 26.5002 18.9475V13.69L11.0735 23.6716ZM21.5001 22.9731L20.5001 21.7231L21.5001 20.473L22.5002 21.7231L21.5001 22.9731Z" fill="#797990"/>
</svg>
