<svg width="18" height="19" viewBox="0 0 18 19" fill="none" xmlns="http://www.w3.org/2000/svg">
<g id="elements">
<path id="Icon" fill-rule="evenodd" clip-rule="evenodd" d="M8.16699 0.541504C3.67968 0.541504 0.0419922 4.17919 0.0419922 8.6665C0.0419922 13.1538 3.67968 16.7915 8.16699 16.7915C10.1857 16.7915 12.0324 16.0553 13.4534 14.8368L16.8917 18.2751C17.1358 18.5192 17.5315 18.5192 17.7756 18.2751C18.0197 18.031 18.0197 17.6353 17.7756 17.3912L14.3373 13.9529C15.5558 12.5319 16.292 10.6852 16.292 8.6665C16.292 4.17919 12.6543 0.541504 8.16699 0.541504ZM1.29199 8.6665C1.29199 4.86955 4.37004 1.7915 8.16699 1.7915C11.964 1.7915 15.042 4.86955 15.042 8.6665C15.042 12.4635 11.964 15.5415 8.16699 15.5415C4.37004 15.5415 1.29199 12.4635 1.29199 8.6665Z" fill="#64748B"/>
</g>
</svg>
