<svg width="36" height="30" viewBox="0 0 36 30" fill="none" xmlns="http://www.w3.org/2000/svg">
<g id="elements">
<path id="Icon" fill-rule="evenodd" clip-rule="evenodd" d="M7.90366 0.416675H28.0964C29.5854 0.416607 30.8445 0.416549 31.8475 0.570653C32.9269 0.736514 33.8821 1.10337 34.6311 1.95933C35.3591 2.79128 35.651 3.81136 35.7861 4.9596C35.9168 6.07023 35.9167 7.47806 35.9167 9.2067V20.7933C35.9167 22.522 35.9168 23.9298 35.7861 25.0404C35.651 26.1887 35.3591 27.2087 34.6311 28.0407C33.8821 28.8967 32.9269 29.2635 31.8475 29.4294C30.8445 29.5835 29.5855 29.5834 28.0965 29.5833H7.90362C6.41462 29.5834 5.15557 29.5835 4.15263 29.4294C3.07318 29.2635 2.11794 28.8967 1.36897 28.0407C0.641013 27.2087 0.349056 26.1887 0.213976 25.0404C0.0833221 23.9298 0.0833458 22.522 0.0833749 20.7934V9.20668C0.0833458 7.47807 0.0833221 6.07022 0.213976 4.9596C0.349056 3.81136 0.641013 2.79128 1.36897 1.95933C2.11794 1.10337 3.07318 0.736514 4.15263 0.570653C5.15557 0.416549 6.41467 0.416607 7.90366 0.416675ZM2.58338 11.25V18.75H5.50004C5.73016 18.75 5.91671 18.5635 5.91671 18.3333V11.6667C5.91671 11.4366 5.73016 11.25 5.50004 11.25H2.58338ZM2.58355 21.25H5.50004C7.11087 21.25 8.41671 19.9442 8.41671 18.3333V11.6667C8.41671 10.0558 7.11087 8.75001 5.50004 8.75001H2.58355C2.5849 7.20791 2.59666 6.10341 2.69685 5.25169C2.80585 4.32515 3.00205 3.88943 3.25041 3.60559C3.47775 3.34578 3.79633 3.15474 4.53231 3.04165C5.32322 2.92013 6.38847 2.91668 8.00004 2.91668H16.8212C16.7751 3.047 16.75 3.18725 16.75 3.33334V10.5892C14.8263 11.1333 13.4167 12.902 13.4167 15C13.4167 17.098 14.8263 18.8667 16.75 19.4108V26.6667C16.75 26.8128 16.7751 26.953 16.8212 27.0833H8.00004C6.38847 27.0833 5.32322 27.0799 4.53231 26.9584C3.79633 26.8453 3.47775 26.6543 3.25041 26.3944C3.00205 26.1106 2.80585 25.6749 2.69685 24.7483C2.59666 23.8966 2.5849 22.7921 2.58355 21.25ZM33.3032 5.25169C33.4034 6.10341 33.4152 7.20791 33.4165 8.75001H30.5C28.8892 8.75001 27.5834 10.0558 27.5834 11.6667V18.3333C27.5834 19.9442 28.8892 21.25 30.5 21.25H33.4165C33.4152 22.7921 33.4034 23.8966 33.3032 24.7483C33.1942 25.6749 32.998 26.1106 32.7497 26.3944C32.5223 26.6543 32.2038 26.8453 31.4678 26.9584C30.6769 27.0799 29.6116 27.0833 28 27.0833H19.1789C19.225 26.953 19.25 26.8128 19.25 26.6667V19.4108C21.1738 18.8667 22.5834 17.098 22.5834 15C22.5834 12.902 21.1738 11.1333 19.25 10.5892V3.33334C19.25 3.18725 19.225 3.047 19.1789 2.91668H28C29.6116 2.91668 30.6769 2.92013 31.4678 3.04165C32.2038 3.15474 32.5223 3.34578 32.7497 3.60559C32.998 3.88943 33.1942 4.32515 33.3032 5.25169ZM30.5 18.75H33.4167V11.25H30.5C30.2699 11.25 30.0834 11.4366 30.0834 11.6667V18.3333C30.0834 18.5635 30.2699 18.75 30.5 18.75ZM18 12.9167C16.8494 12.9167 15.9167 13.8494 15.9167 15C15.9167 16.1506 16.8494 17.0833 18 17.0833C19.1506 17.0833 20.0834 16.1506 20.0834 15C20.0834 13.8494 19.1506 12.9167 18 12.9167Z" fill="white"/>
</g>
</svg>
