<svg width="55" height="38" viewBox="0 0 55 38" fill="none" xmlns="http://www.w3.org/2000/svg">
<path d="M1.29033 11.0672C10.265 3.48868 20.1932 -0.0311344 30.1422 0.72517C31.1747 0.803663 31.9481 1.70435 31.8696 2.7369C31.7912 3.76945 30.8905 4.54287 29.8579 4.46438C21.0482 3.79468 12.0634 6.8782 3.70975 13.9324C2.91857 14.6005 1.73559 14.5007 1.06748 13.7095C0.399377 12.9183 0.499149 11.7353 1.29033 11.0672Z" fill="white"/>
<path d="M32.8856 12.4117C25.1178 10.7795 16.8662 12.8791 10.0497 18.5596C9.25418 19.2225 9.1467 20.4048 9.80963 21.2003C10.4726 21.9959 11.6549 22.1033 12.4504 21.4404C18.4528 16.4384 25.5515 14.7025 32.1145 16.0816C33.1279 16.2945 34.122 15.6456 34.335 14.6322C34.5479 13.6188 33.899 12.6246 32.8856 12.4117Z" fill="white"/>
<path d="M44.3742 18.064C43.5797 17.3999 42.3972 17.5056 41.7331 18.3001C41.069 19.0947 41.1747 20.2771 41.9692 20.9412C42.15 21.0923 42.3295 21.2466 42.5076 21.4043C43.2832 22.0904 44.4682 22.018 45.1543 21.2424C45.8405 20.4668 45.768 19.2819 44.9925 18.5957C44.7881 18.4149 44.582 18.2376 44.3742 18.064Z" fill="white"/>
<path d="M16.7992 26.1739C22.5314 20.4416 32.4686 20.4416 38.2008 26.1739C38.9331 26.9061 38.9331 28.0933 38.2008 28.8255C37.4686 29.5578 36.2814 29.5578 35.5492 28.8255C31.2814 24.5578 23.7186 24.5578 19.4508 28.8255C18.7186 29.5578 17.5314 29.5578 16.7992 28.8255C16.0669 28.0933 16.0669 26.9061 16.7992 26.1739Z" fill="white"/>
<path d="M25 34.9997C25 33.619 26.1193 32.4997 27.5 32.4997H27.5295C28.9102 32.4997 30.0295 33.619 30.0295 34.9997C30.0295 36.3804 28.9102 37.4997 27.5295 37.4997H27.5C26.1193 37.4997 25 36.3804 25 34.9997Z" fill="white"/>
<path d="M38.8258 1.17387C38.0936 0.441637 36.9064 0.441637 36.1742 1.17387C35.4419 1.9061 35.4419 3.09329 36.1742 3.82552L42.3484 9.99969L36.1742 16.1739C35.4419 16.9061 35.4419 18.0933 36.1742 18.8255C36.9064 19.5578 38.0936 19.5578 38.8258 18.8255L45 12.6513L51.1742 18.8255C51.9064 19.5578 53.0936 19.5578 53.8258 18.8255C54.5581 18.0933 54.5581 16.9061 53.8258 16.1739L47.6517 9.99969L53.8258 3.82552C54.5581 3.09329 54.5581 1.9061 53.8258 1.17387C53.0936 0.441638 51.9064 0.441638 51.1742 1.17387L45 7.34804L38.8258 1.17387Z" fill="white"/>
</svg>
